<svg id="Layer_1" data-name="Layer 1" xmlns="http://www.w3.org/2000/svg" width="118.66667" height="79.55556" viewBox="0 0 118.66667 79.55556">
  <defs>
    <style>
      .cls-1 {
        fill: #ed212a;
      }

      .cls-2 {
        fill: #fff;
      }
    </style>
  </defs>
  <g>
    <path class="cls-1" d="M106.13119,28.84572c-.01066-.0663-.02723-.13024-.03908-.195-.03079-.13735-.06157-.26919-.103-.40022a2.25159,2.25159,0,0,0-.077-.21471,3.578,3.578,0,0,0-.1492-.34337c-.03316-.071-.071-.13972-.10775-.20683-.06394-.10892-.13143-.21235-.20248-.315-.04262-.06077-.0817-.12313-.12788-.18155-.08879-.1121-.1847-.21629-.28063-.31733-.03906-.03789-.07458-.08289-.11367-.11921a3.93908,3.93908,0,0,0-.45348-.37336c-.04026-.02841-.08289-.04973-.12315-.07657-.10183-.0679-.20839-.13656-.31733-.19656l-.0509-.02051a3.86569,3.86569,0,0,0-.67374-.2755l-.02841-.00711L56.44315,6.86714a6.10584,6.10584,0,0,0-2.734-.64492c-.10053,0-.19288.02209-.29235.02684-.09829-.00475-.19183-.02684-.29366-.02684a6.10309,6.10309,0,0,0-2.12657.38127,5.89086,5.89086,0,0,0-.60624.26365l-24.40453,9.763V9.46971a3.21559,3.21559,0,0,0-3.21592-3.21435H13.55075A3.21459,3.21459,0,0,0,10.336,9.46971v13.417L3.54779,25.603l-.02605.00711a3.90377,3.90377,0,0,0-.67372.2755l-.05329.02051c-.10894.06-.21313.12866-.31615.19656-.04145.02684-.08407.04816-.12313.07657a4.04284,4.04284,0,0,0-.45351.37336c-.03789.03632-.07341.08132-.1113.11921-.09708.101-.193.20523-.2818.31733-.04618.05842-.08526.12078-.12907.18155-.06867.10261-.13853.206-.2001.315-.03908.06711-.07578.13578-.10894.20683-.05565.11128-.10419.22655-.1492.34337-.026.06867-.05446.13972-.07931.21471-.04145.131-.07106.26287-.10066.40022-.01421.06473-.03078.12867-.04145.195a3.99458,3.99458,0,0,0-.04971.62281V70.91727a4.02773,4.02773,0,0,0,4.027,4.02818h97.47889a4.02951,4.02951,0,0,0,4.02818-4.02818V29.46853A3.99363,3.99363,0,0,0,106.13119,28.84572Z"/>
    <g>
      <g>
        <path class="cls-2" d="M29.17511,49.05709a5.30164,5.30164,0,0,1-4.13,1.71531,5.01729,5.01729,0,0,1-3.416-1.158,5.40179,5.40179,0,0,1-1.81517-4.145,5.74563,5.74563,0,0,1,1.04316-3.37379,4.91624,4.91624,0,0,1,4.20224-2.10083A5.52206,5.52206,0,0,1,29.29,41.839a4.85922,4.85922,0,0,1,.65715.97332L27.2735,44.14086c-.04262-.09946-.09945-.2005-.14209-.3a2.13426,2.13426,0,0,0-1.95724-1.37352,1.91947,1.91947,0,0,0-1.158.35918,3.05775,3.05775,0,0,0-.9579,2.4581,3.01319,3.01319,0,0,0,.92949,2.51495,1.84772,1.84772,0,0,0,1.20063.39865,2.04252,2.04252,0,0,0,1.81517-1.08461,3.99755,3.99755,0,0,0,.22734-.5715l2.73044,1.31431A6.12978,6.12978,0,0,1,29.17511,49.05709Z"/>
        <path class="cls-2" d="M39.11414,50.45665l-.44284-1.41377H35.15581l-.444,1.41377h-3.429l3.85886-10.0899h3.63033l3.77362,10.0899Zm-2.17157-7.21727-1.10118,3.55851h2.17275Z"/>
        <path class="cls-2" d="M52.141,49.82752a5.864,5.864,0,0,1-3.43023.93068,6.52947,6.52947,0,0,1-4.073-1.14382,5.16021,5.16021,0,0,1-1.07159-1.087l2.44371-1.55822a2.3442,2.3442,0,0,0,.48548.6157,3.94335,3.94335,0,0,0,2.33023.71518c.89988,0,1.52863-.27313,1.52863-.772a.61207.61207,0,0,0-.071-.24391.73276.73276,0,0,0-.48546-.37181c-.35877-.12867-1.00054-.21392-1.90161-.39862a5.38312,5.38312,0,0,1-2.6154-1.04435,2.634,2.634,0,0,1-.87147-2.04291,3.08887,3.08887,0,0,1,.3718-1.5306c1.02756-1.8869,3.70118-1.85691,4.08717-1.85691a6.5761,6.5761,0,0,1,3.77244,1.08569,6.14316,6.14316,0,0,1,.772.70017l-2.01526,1.6727a1.77426,1.77426,0,0,0-.28536-.33,3.65792,3.65792,0,0,0-2.35749-.70019,2.121,2.121,0,0,0-.7578.12788.6421.6421,0,0,0-.4002.52967.58133.58133,0,0,0,.257.45786,4.05873,4.05873,0,0,0,1.12839.31494,14.30924,14.30924,0,0,1,2.30184.5131,2.78031,2.78031,0,0,1,2.187,2.77387A3.20543,3.20543,0,0,1,52.141,49.82752Z"/>
        <path class="cls-2" d="M55.6624,50.45665V40.36675h3.20281v10.0899Z"/>
        <path class="cls-2" d="M66.3994,42.855v7.60169H63.21308V42.855h-2.573V40.36675H68.957V42.855Z"/>
        <path class="cls-2" d="M77.10924,50.45665l-.444-1.41377H73.14855l-.44283,1.41377H69.27666l3.85769-10.0899h3.63033l3.77479,10.0899Zm-2.17393-7.21727-1.1,3.55851h2.17277Z"/>
        <path class="cls-2" d="M90.43705,49.82752a5.86517,5.86517,0,0,1-3.43139.93068,6.52913,6.52913,0,0,1-4.072-1.14382,5.10365,5.10365,0,0,1-1.07159-1.087L84.306,46.96919a2.298,2.298,0,0,0,.48429.6157,3.94484,3.94484,0,0,0,2.329.71518c.90225,0,1.531-.27313,1.531-.772a.61213.61213,0,0,0-.071-.24391.7419.7419,0,0,0-.48665-.37181c-.35877-.12867-1.00173-.21392-1.90042-.39862a5.38505,5.38505,0,0,1-2.61678-1.04435,2.63392,2.63392,0,0,1-.87147-2.04291,3.0804,3.0804,0,0,1,.373-1.5306c1.02657-1.8869,3.70139-1.85691,4.085-1.85691a6.57919,6.57919,0,0,1,3.77361,1.08569,6.238,6.238,0,0,1,.77319.70017l-2.01645,1.6727a1.86777,1.86777,0,0,0-.28536-.33,3.65708,3.65708,0,0,0-2.35866-.70019,2.1225,2.1225,0,0,0-.75661.12788.64484.64484,0,0,0-.40141.52967.58056.58056,0,0,0,.25931.45786,4.0403,4.0403,0,0,0,1.12724.31494,14.24877,14.24877,0,0,1,2.30063.5131,2.78,2.78,0,0,1,2.18816,2.77387A3.20819,3.20819,0,0,1,90.43705,49.82752Z"/>
      </g>
      <g>
        <path class="cls-2" d="M47.88785,31.3441v2.13762a3.05447,3.05447,0,0,1-.86791.47364,3.32339,3.32339,0,0,1-1.145.19023,2.70717,2.70717,0,0,1-1.01571-.17366,1.92093,1.92093,0,0,1-.71636-.49415,2.06666,2.06666,0,0,1-.42746-.76964,3.63038,3.63038,0,0,1,.01184-2.0516,2.18854,2.18854,0,0,1,.44521-.78306,1.92834,1.92834,0,0,1,.71281-.49019,2.587,2.587,0,0,1,.97074-.17051,2.46791,2.46791,0,0,1,.82174.12472,1.84,1.84,0,0,1,.592.33628,1.50871,1.50871,0,0,1,.37771.48625,2.11581,2.11581,0,0,1,.18828.5794l-1.26222.12394a.79782.79782,0,0,0-.2451-.44284.7406.7406,0,0,0-.48665-.1421.8119.8119,0,0,0-.72563.34812,1.9053,1.9053,0,0,0-.23326,1.04671,1.81181,1.81181,0,0,0,.2522,1.05539.97909.97909,0,0,0,.85114.35127,1.52848,1.52848,0,0,0,.73767-.17049v-.547H45.9744V31.3441Z"/>
        <path class="cls-2" d="M52.98405,31.60379a1.3453,1.3453,0,0,1-.5269.54941l.96028,1.874H52.0818l-.76964-1.61742H50.629v1.61742H49.42477v-4.696H51.279a2.80059,2.80059,0,0,1,.90819.12551,1.53405,1.53405,0,0,1,.57663.33155,1.16316,1.16316,0,0,1,.30193.47756,1.74523,1.74523,0,0,1,.08882.55256A1.72047,1.72047,0,0,1,52.98405,31.60379Zm-1.737-.17444a.77288.77288,0,0,0,.53638-.14762.56174.56174,0,0,0,.15393-.42548.51843.51843,0,0,0-.16339-.40731.86012.86012,0,0,0-.566-.14447h-.579v1.12488Z"/>
        <path class="cls-2" d="M55.705,34.02717a1.53373,1.53373,0,0,1-.62045-.36784,1.5853,1.5853,0,0,1-.386-.64177,2.95112,2.95112,0,0,1-.13143-.937v-2.7494h1.2634v2.796a1.22383,1.22383,0,0,0,.1634.70332.79457.79457,0,0,0,1.11765,0,1.20409,1.20409,0,0,0,.16576-.70332v-2.796h1.26222v2.7494a2.81266,2.81266,0,0,1-.13736.937,1.65457,1.65457,0,0,1-.39547.64177,1.56074,1.56074,0,0,1-.62756.36784,2.73372,2.73372,0,0,1-.83821.11842A2.70233,2.70233,0,0,1,55.705,34.02717Z"/>
        <path class="cls-2" d="M61.87745,29.33118a2.83978,2.83978,0,0,1,.91648.12551,1.46774,1.46774,0,0,1,.579.33864,1.15262,1.15262,0,0,1,.30076.49651,2.08537,2.08537,0,0,1,.08525.60467,2.19493,2.19493,0,0,1-.08762.62045,1.24294,1.24294,0,0,1-.30787.51389,1.45769,1.45769,0,0,1-.57544.34575,2.7647,2.7647,0,0,1-.89635.1255h-.547v1.52507h-1.222v-4.696Zm.00712,2.16448a.783.783,0,0,0,.54822-.1492.58045.58045,0,0,0,.1551-.44284.55148.55148,0,0,0-.15748-.43415.852.852,0,0,0-.553-.13893h-.53282v1.16512Z"/>
        <path class="cls-2" d="M68.30574,29.38329a1.97258,1.97258,0,0,1,.71872.487,2.06264,2.06264,0,0,1,.444.77043,3.17215,3.17215,0,0,1,.15274,1.0183,3.247,3.247,0,0,1-.15629,1.03408,2.1395,2.1395,0,0,1-.45113.78227,1.9819,1.9819,0,0,1-.72819.49652,2.662,2.662,0,0,1-.99462.17366,2.623,2.623,0,0,1-.97922-.17051,1.95151,1.95151,0,0,1-.71874-.48625,2.0661,2.0661,0,0,1-.444-.77122,3.143,3.143,0,0,1-.15275-1.0183A3.2099,3.2099,0,0,1,65.1514,30.666a2.15052,2.15052,0,0,1,.44993-.78306,1.98945,1.98945,0,0,1,.73058-.49573,2.90985,2.90985,0,0,1,1.97383-.00394Zm-1.75005,3.32485a.86757.86757,0,0,0,.75661.35206.85824.85824,0,0,0,.75307-.35206,2.28238,2.28238,0,0,0,0-2.05791.85766.85766,0,0,0-.75307-.35127.867.867,0,0,0-.75661.35127,2.2344,2.2344,0,0,0,0,2.05791Z"/>
      </g>
      <g>
        <path class="cls-2" d="M29.21181,56.87506h1.84833a2.44979,2.44979,0,0,1,1.77254.58492,2.27959,2.27959,0,0,1,.60151,1.7098,2.38525,2.38525,0,0,1-.63467,1.78,2.49183,2.49183,0,0,1-1.8128.62124H29.21181ZM31.008,60.50539a1.02182,1.02182,0,0,0,.84779-.33863,1.50281,1.50281,0,0,0,.27-.95751,1.53205,1.53205,0,0,0-.251-.94489.94417.94417,0,0,0-.80161-.32365h-.598v2.56468Z"/>
        <path class="cls-2" d="M38.2403,56.87506V57.9123H36.109v.7499h1.99869v1.04041H36.109v.828h2.26867l-.10539,1.04041H34.87993v-4.696Z"/>
        <path class="cls-2" d="M41.01337,60.51487a.94029.94029,0,0,0,.59795.161.86929.86929,0,0,0,.50322-.1184.387.387,0,0,0,.16816-.33629.36793.36793,0,0,0-.1125-.27313.84538.84538,0,0,0-.40732-.16734l-.62517-.11682a2.32477,2.32477,0,0,1-1.15683-.48706,1.21632,1.21632,0,0,1-.37536-.948,1.28314,1.28314,0,0,1,.50324-1.10118,2.27936,2.27936,0,0,1,1.38417-.371,2.7881,2.7881,0,0,1,.875.1184,1.69088,1.69088,0,0,1,.592.315,1.319,1.319,0,0,1,.34812.45626,1.85636,1.85636,0,0,1,.15156.54309l-1.22432.12472a.6959.6959,0,0,0-.22615-.41915A.812.812,0,0,0,41.487,57.756a.82862.82862,0,0,0-.47717.10892.33883.33883,0,0,0-.15511.29287.322.322,0,0,0,.12551.26285.97363.97363,0,0,0,.4002.15l.6394.12552a2.17759,2.17759,0,0,1,1.17578.53046,1.27711,1.27711,0,0,1,.3493.92356,1.60414,1.60414,0,0,1-.11842.62993,1.22021,1.22021,0,0,1-.36231.48548,1.73405,1.73405,0,0,1-.61808.31021,3.04451,3.04451,0,0,1-.88095.11288q-1.9537-.013-2.052-1.66243h1.25629A.70359.70359,0,0,0,41.01337,60.51487Z"/>
        <path class="cls-2" d="M49.21281,61.57106H47.90442l-.27-.90227H46.05018l-.26285.90227H44.517l1.63146-4.696h1.4339Zm-1.88622-1.90713-.48072-1.6198-.48665,1.6198Z"/>
        <path class="cls-2" d="M54.02959,59.1461a1.32378,1.32378,0,0,1-.52692.54939l.96028,1.87557H53.12852l-.76965-1.61979h-.68438v1.61979h-1.203v-4.696h1.85424a2.77294,2.77294,0,0,1,.907.12472,1.49413,1.49413,0,0,1,.57664.33233,1.13669,1.13669,0,0,1,.30194.47757,1.83443,1.83443,0,0,1-.0817,1.33642Zm-1.737-.17288a.7709.7709,0,0,0,.53638-.14762.5654.5654,0,0,0,.1551-.42625.51641.51641,0,0,0-.16457-.40654.85356.85356,0,0,0-.566-.14445h-.579v1.12486Z"/>
        <path class="cls-2" d="M59.25239,59.1461a1.34152,1.34152,0,0,1-.52809.54939l.96145,1.87557H58.35013l-.76965-1.61979H56.8961v1.61979H55.6932v-4.696h1.85414a2.77307,2.77307,0,0,1,.907.12472,1.50817,1.50817,0,0,1,.57781.33233,1.16042,1.16042,0,0,1,.30194.47757,1.76847,1.76847,0,0,1,.0888.55021A1.724,1.724,0,0,1,59.25239,59.1461Zm-1.73821-.17288a.7709.7709,0,0,0,.53638-.14762.56533.56533,0,0,0,.15512-.42625.51633.51633,0,0,0-.1646-.40654.85346.85346,0,0,0-.566-.14445h-.579v1.12486Z"/>
        <path class="cls-2" d="M64.01233,56.92716a1.98406,1.98406,0,0,1,.71991.48547,2.13261,2.13261,0,0,1,.44284.76963,3.18974,3.18974,0,0,1,.15156,1.01987,3.2739,3.2739,0,0,1-.15392,1.0333,2.189,2.189,0,0,1-.45.78149,1.979,1.979,0,0,1-.73175.49729,2.90319,2.90319,0,0,1-1.97147.004,1.96274,1.96274,0,0,1-.72109-.48706,2.04431,2.04431,0,0,1-.444-.77043,3.4851,3.4851,0,0,1,.00356-2.05237,2.14569,2.14569,0,0,1,.45112-.78227,1.98229,1.98229,0,0,1,.7282-.49653,2.6984,2.6984,0,0,1,.99462-.17286A2.64263,2.64263,0,0,1,64.01233,56.92716ZM62.2611,60.252a.8664.8664,0,0,0,.75661.35049.85576.85576,0,0,0,.75307-.35049,2.27425,2.27425,0,0,0,0-2.05869.85688.85688,0,0,0-.75307-.35206.86754.86754,0,0,0-.75661.35206,2.25485,2.25485,0,0,0,0,2.05869Z"/>
        <path class="cls-2" d="M68.04405,56.87506V60.4983h2.078l-.11128,1.07276H66.78067v-4.696Z"/>
        <path class="cls-2" d="M72.66783,56.87506V60.4983h2.07683l-.11128,1.07276h-3.229v-4.696Z"/>
        <path class="cls-2" d="M79.16951,56.92716a1.96883,1.96883,0,0,1,.72111.48547,2.10079,2.10079,0,0,1,.444.76963,3.53959,3.53959,0,0,1-.00355,2.05317,2.12324,2.12324,0,0,1-.45113.78149,1.95553,1.95553,0,0,1-.73057.49729,2.90656,2.90656,0,0,1-1.97265.004,1.958,1.958,0,0,1-.71991-.48706,2.07388,2.07388,0,0,1-.44284-.77043,3.17955,3.17955,0,0,1-.15156-1.01988,3.24584,3.24584,0,0,1,.15275-1.03249,2.1792,2.1792,0,0,1,.45113-.78227,1.99581,1.99581,0,0,1,.73175-.49653,2.66579,2.66579,0,0,1,.99106-.17286A2.625,2.625,0,0,1,79.16951,56.92716ZM77.42184,60.252a.98554.98554,0,0,0,1.50732,0,2.26458,2.26458,0,0,0,0-2.05869.98272.98272,0,0,0-1.50732,0,2.22664,2.22664,0,0,0,0,2.05869Z"/>
        <path class="cls-2" d="M83.17993,60.51487a.94176.94176,0,0,0,.59915.161.86762.86762,0,0,0,.502-.1184.386.386,0,0,0,.167-.33629.366.366,0,0,0-.11012-.27313.84537.84537,0,0,0-.4085-.16734l-.62518-.11682a2.33444,2.33444,0,0,1-1.158-.48706,1.223,1.223,0,0,1-.373-.948,1.28452,1.28452,0,0,1,.50086-1.10118,2.29048,2.29048,0,0,1,1.38536-.371,2.78011,2.78011,0,0,1,.87383.1184,1.68628,1.68628,0,0,1,.59321.315,1.33372,1.33372,0,0,1,.34812.45626,1.85919,1.85919,0,0,1,.15276.54309l-1.22552.12472a.70721.70721,0,0,0-.225-.41915.81711.81711,0,0,0-.52454-.13893.8294.8294,0,0,0-.476.10892.33884.33884,0,0,0-.15512.29287.31672.31672,0,0,0,.12668.26285.96751.96751,0,0,0,.399.15l.63821.12552a2.18629,2.18629,0,0,1,1.17815.53046,1.282,1.282,0,0,1,.34929.92356,1.58329,1.58329,0,0,1-.11959.62993,1.24252,1.24252,0,0,1-.36231.48548,1.734,1.734,0,0,1-.61808.31021,3.04446,3.04446,0,0,1-.88095.11288q-1.95194-.013-2.05079-1.66243H82.936A.713.713,0,0,0,83.17993,60.51487Z"/>
      </g>
    </g>
    <path class="cls-1" d="M113.82876,72.1423h.71609a1.08641,1.08641,0,0,0,.68115-.18432.47265.47265,0,0,0,.178-.39937.51854.51854,0,0,0-.107-.29342.46807.46807,0,0,0-.25106-.18222,2.2255,2.2255,0,0,0-.57308-.036h-.64407Zm-.5731,2.0032V70.53636h1.21717a2.47014,2.47014,0,0,1,.893.11123.892.892,0,0,1,.46612.3284,1.08469,1.08469,0,0,1,.179.54661,1.004,1.004,0,0,1-.286.69174,1.19063,1.19063,0,0,1-.75105.32733,1.31347,1.31347,0,0,1,.32308.18326,3.418,3.418,0,0,1,.5.73095l.43114.68962H115.547l-.321-.54663a2.554,2.554,0,0,0-.61123-.83686.59662.59662,0,0,0-.46187-.14725h-.32414V74.1455Zm1.46716-4.66529a3.074,3.074,0,0,0-1.36018.36336,2.68317,2.68317,0,0,0-1.03708,1.05826,2.776,2.776,0,0,0-.39407,1.38455,2.908,2.908,0,0,0,.39407,1.42266,2.4988,2.4988,0,0,0,1.00212,1.02119,2.67452,2.67452,0,0,0,1.39514.36336,2.63891,2.63891,0,0,0,1.36018-.36336,2.47694,2.47694,0,0,0,1.00107-1.02119,2.8678,2.8678,0,0,0,.36016-1.42266,2.73494,2.73494,0,0,0-.36016-1.38455,2.65954,2.65954,0,0,0-1.036-1.05826,3.04472,3.04472,0,0,0-1.32522-.36336m0-.5466a3.34926,3.34926,0,0,1,1.6123.4375,2.86708,2.86708,0,0,1,1.215,1.2373,3.2166,3.2166,0,0,1,.46611,1.678,3.42271,3.42271,0,0,1-.429,1.67585,3.55089,3.55089,0,0,1-1.25213,1.2786,3.15882,3.15882,0,0,1-1.6123.43645,3.28976,3.28976,0,0,1-1.64618-.43645,3.53908,3.53908,0,0,1-1.25108-1.2786,3.41306,3.41306,0,0,1-.43114-1.67585,3.235,3.235,0,0,1,.46505-1.678,2.88315,2.88315,0,0,1,1.21717-1.2373,3.37976,3.37976,0,0,1,1.64618-.4375"/>
  </g>
</svg>
