<?xml version="1.0" encoding="utf-8"?>
<!-- Generator: Adobe Illustrator 25.3.0, SVG Export Plug-In . SVG Version: 6.00 Build 0)  -->
<svg version="1.1" id="Capa_1" xmlns="http://www.w3.org/2000/svg" xmlns:xlink="http://www.w3.org/1999/xlink" x="0px" y="0px"
	 viewBox="0 0 200 200" style="enable-background:new 0 0 200 200;" xml:space="preserve">
<style type="text/css">
	.st0{fill:#FFFFFF;}
</style>
<g>
	<g>
		<path class="st0" d="M27.8,134.2V153h-3.9v-12l-7.7,12h-4.3l-7.7-12v12H0.3v-18.8h3.9l9.9,15.5l9.9-15.5H27.8z"/>
		<path class="st0" d="M36.7,134.2V153h-3.9v-18.8H36.7z"/>
		<path class="st0" d="M61.3,148.5v4.5h-3.9l0-4.2c0-2.1-1.7-2.7-4.7-2.7h-7.1v6.9h-3.9v-18.8h12.8c4.4,0,7.2,1.7,7.2,5.7
			c0,3.2-2.1,4.5-4.7,4.9C59.9,145,61.3,145.9,61.3,148.5z M54.5,143c2,0,3.3-1.1,3.3-2.9c0-1.7-1.4-2.6-3.3-2.6h-8.9v5.5H54.5z"/>
		<path class="st0" d="M79.9,148.7h-9.7l-1.9,4.3h-4.2l8.8-18.8h4.2L86,153h-4.2L79.9,148.7z M78.5,145.8l-3.5-7.8l-3.5,7.8H78.5z"
			/>
		<path class="st0" d="M106.4,134.2L98.2,153h-4.8L85,134.2h4.3l6.5,15.5l6.5-15.5H106.4z"/>
		<path class="st0" d="M127.6,149.8v3.2h-18.4v-18.8h18.4v3.2h-14.5v5H125v2.4h-11.9v5H127.6z"/>
		<path class="st0" d="M151.2,148.5v4.5h-3.9l0-4.2c0-2.1-1.7-2.7-4.7-2.7h-7.1v6.9h-3.9v-18.8h12.8c4.4,0,7.2,1.7,7.2,5.7
			c0,3.2-2.1,4.5-4.7,4.9C149.8,145,151.2,145.9,151.2,148.5z M144.4,143c2,0,3.3-1.1,3.3-2.9c0-1.7-1.4-2.6-3.3-2.6h-8.9v5.5H144.4
			z"/>
		<path class="st0" d="M177.5,143.5c0,5-2.9,9.5-11,9.5h-10.8v-18.8h10.8C174.9,134.2,177.5,138.5,177.5,143.5z M173.5,143.5
			c0-3.2-1.6-6-7.2-6h-6.8v12.1h6.8C171.9,149.6,173.5,146.7,173.5,143.5z"/>
		<path class="st0" d="M199.7,149.8v3.2h-18.4v-18.8h18.4v3.2h-14.5v5H197v2.4h-11.9v5H199.7z"/>
	</g>
	<g>
		<g>
			<path class="st0" d="M52.7,123.1h2c0.3,0,0.5,0,0.8,0.1c0.2,0.1,0.5,0.1,0.7,0.3c0.2,0.1,0.3,0.3,0.4,0.5
				c0.1,0.2,0.2,0.5,0.2,0.8c0,0.3-0.1,0.6-0.2,0.8c-0.1,0.2-0.2,0.4-0.4,0.5c-0.2,0.1-0.4,0.2-0.6,0.3c-0.2,0.1-0.5,0.1-0.8,0.1
				h-0.9v2.1h-1.2V123.1z M53.9,125.4h0.8c0.1,0,0.2,0,0.3,0c0.1,0,0.2-0.1,0.3-0.1c0.1,0,0.1-0.1,0.2-0.2c0-0.1,0.1-0.2,0.1-0.3
				c0-0.1,0-0.2-0.1-0.3c-0.1-0.1-0.1-0.1-0.2-0.2c-0.1,0-0.2-0.1-0.3-0.1c-0.1,0-0.2,0-0.4,0h-0.6V125.4z"/>
			<path class="st0" d="M57.5,123.1h2.1c0.3,0,0.5,0,0.8,0.1c0.2,0.1,0.5,0.1,0.6,0.3c0.2,0.1,0.3,0.3,0.4,0.5s0.2,0.5,0.2,0.8
				c0,0.4-0.1,0.7-0.3,1c-0.2,0.3-0.5,0.4-0.9,0.5l1.4,2.3h-1.4l-1.1-2.2h-0.6v2.2h-1.2V123.1z M58.7,125.3h0.7c0.1,0,0.2,0,0.3,0
				c0.1,0,0.2,0,0.3-0.1c0.1,0,0.2-0.1,0.2-0.2c0.1-0.1,0.1-0.2,0.1-0.3c0-0.1,0-0.2-0.1-0.3c-0.1-0.1-0.1-0.1-0.2-0.2
				c-0.1,0-0.2-0.1-0.3-0.1c-0.1,0-0.2,0-0.3,0h-0.8V125.3z"/>
			<path class="st0" d="M62.4,123.1h1.2v5.4h-1.2V123.1z"/>
			<path class="st0" d="M64.1,123.1h1.4l1.3,3.5h0l1.4-3.5h1.3l-2.2,5.4h-1L64.1,123.1z"/>
			<path class="st0" d="M71.4,123.1h1l2.4,5.4h-1.3l-0.5-1.1h-2.1l-0.5,1.1h-1.3L71.4,123.1z M71.9,124.7l-0.7,1.7h1.3L71.9,124.7z"
				/>
			<path class="st0" d="M75.3,123.1h1.8c0.4,0,0.8,0,1.2,0.1c0.4,0.1,0.7,0.3,1,0.5c0.3,0.2,0.5,0.5,0.7,0.8
				c0.2,0.3,0.3,0.8,0.3,1.3c0,0.4-0.1,0.8-0.2,1.2c-0.2,0.3-0.4,0.6-0.7,0.8c-0.3,0.2-0.6,0.4-1,0.5c-0.4,0.1-0.8,0.2-1.2,0.2h-1.9
				V123.1z M76.5,127.4h0.6c0.3,0,0.5,0,0.8-0.1c0.2-0.1,0.4-0.1,0.6-0.3c0.2-0.1,0.3-0.3,0.4-0.5c0.1-0.2,0.1-0.5,0.1-0.8
				c0-0.3,0-0.5-0.1-0.7c-0.1-0.2-0.2-0.4-0.4-0.5c-0.2-0.1-0.4-0.2-0.6-0.3c-0.2-0.1-0.5-0.1-0.7-0.1h-0.7V127.4z"/>
			<path class="st0" d="M82.9,123.1h1l2.4,5.4h-1.3l-0.5-1.1h-2.1l-0.5,1.1h-1.3L82.9,123.1z M83.3,124.7l-0.7,1.7H84L83.3,124.7z"
				/>
			<path class="st0" d="M89,123.1h1.2v2h2.3v-2h1.2v5.4h-1.2v-2.3h-2.3v2.3H89V123.1z"/>
			<path class="st0" d="M96.6,123.1h1l2.4,5.4h-1.3l-0.5-1.1H96l-0.5,1.1h-1.3L96.6,123.1z M97,124.7l-0.7,1.7h1.3L97,124.7z"/>
			<path class="st0" d="M100.5,123.1h2c0.2,0,0.5,0,0.7,0c0.2,0,0.4,0.1,0.6,0.2c0.2,0.1,0.3,0.2,0.5,0.4c0.1,0.2,0.2,0.4,0.2,0.7
				c0,0.3-0.1,0.6-0.3,0.8c-0.2,0.2-0.4,0.3-0.7,0.4v0c0.2,0,0.3,0.1,0.5,0.1s0.3,0.2,0.4,0.3c0.1,0.1,0.2,0.2,0.2,0.4
				c0.1,0.2,0.1,0.3,0.1,0.5c0,0.3-0.1,0.5-0.2,0.7c-0.1,0.2-0.3,0.3-0.5,0.5s-0.4,0.2-0.7,0.3c-0.2,0.1-0.5,0.1-0.7,0.1h-2.2V123.1
				z M101.7,125.3h0.9c0.1,0,0.2,0,0.3,0c0.1,0,0.2-0.1,0.2-0.1c0.1,0,0.1-0.1,0.2-0.2c0-0.1,0.1-0.2,0.1-0.3c0-0.1,0-0.2-0.1-0.3
				c0-0.1-0.1-0.1-0.2-0.2c-0.1,0-0.2-0.1-0.3-0.1c-0.1,0-0.2,0-0.3,0h-0.8V125.3z M101.7,127.5h1.1c0.1,0,0.2,0,0.3,0
				c0.1,0,0.2-0.1,0.3-0.1c0.1,0,0.1-0.1,0.2-0.2c0-0.1,0.1-0.2,0.1-0.3c0-0.1,0-0.2-0.1-0.3c-0.1-0.1-0.1-0.1-0.2-0.2
				c-0.1,0-0.2-0.1-0.3-0.1c-0.1,0-0.2,0-0.3,0h-0.9V127.5z"/>
			<path class="st0" d="M105.4,123.1h1.2v5.4h-1.2V123.1z"/>
			<path class="st0" d="M108.7,124.2h-1.5v-1.1h4.3v1.1h-1.5v4.4h-1.2V124.2z"/>
			<path class="st0" d="M113.1,123.1h1l2.4,5.4h-1.3l-0.5-1.1h-2.1l-0.5,1.1h-1.3L113.1,123.1z M113.6,124.7l-0.7,1.7h1.3
				L113.6,124.7z"/>
			<path class="st0" d="M120.6,124.5c-0.1-0.1-0.3-0.3-0.4-0.3c-0.2-0.1-0.4-0.1-0.6-0.1c-0.2,0-0.4,0-0.6,0.1s-0.4,0.2-0.5,0.4
				c-0.1,0.2-0.2,0.3-0.3,0.6c-0.1,0.2-0.1,0.4-0.1,0.7c0,0.3,0,0.5,0.1,0.7c0.1,0.2,0.2,0.4,0.3,0.6c0.1,0.2,0.3,0.3,0.5,0.4
				c0.2,0.1,0.4,0.1,0.6,0.1c0.2,0,0.5-0.1,0.6-0.2c0.2-0.1,0.3-0.2,0.5-0.4l1,0.7c-0.2,0.3-0.5,0.6-0.9,0.7
				c-0.4,0.2-0.7,0.2-1.1,0.2c-0.4,0-0.8-0.1-1.2-0.2c-0.4-0.1-0.7-0.3-0.9-0.6c-0.3-0.2-0.5-0.5-0.6-0.9s-0.2-0.7-0.2-1.2
				c0-0.4,0.1-0.8,0.2-1.2s0.3-0.6,0.6-0.9c0.3-0.2,0.6-0.4,0.9-0.6c0.4-0.1,0.7-0.2,1.2-0.2c0.2,0,0.3,0,0.5,0
				c0.2,0,0.3,0.1,0.5,0.1c0.2,0.1,0.3,0.1,0.5,0.2c0.1,0.1,0.3,0.2,0.4,0.4L120.6,124.5z"/>
			<path class="st0" d="M122.2,123.1h1.2v5.4h-1.2V123.1z"/>
			<path class="st0" d="M124.2,125.8c0-0.4,0.1-0.8,0.2-1.2s0.3-0.6,0.6-0.9c0.3-0.2,0.6-0.4,0.9-0.6c0.4-0.1,0.7-0.2,1.2-0.2
				c0.4,0,0.8,0.1,1.2,0.2c0.4,0.1,0.7,0.3,0.9,0.6c0.3,0.2,0.5,0.5,0.6,0.9c0.1,0.4,0.2,0.7,0.2,1.2c0,0.4-0.1,0.8-0.2,1.2
				c-0.1,0.4-0.3,0.6-0.6,0.9c-0.3,0.2-0.6,0.4-0.9,0.6c-0.4,0.1-0.7,0.2-1.2,0.2c-0.4,0-0.8-0.1-1.2-0.2c-0.4-0.1-0.7-0.3-0.9-0.6
				c-0.3-0.2-0.5-0.5-0.6-0.9S124.2,126.2,124.2,125.8z M125.5,125.8c0,0.3,0,0.5,0.1,0.7c0.1,0.2,0.2,0.4,0.3,0.6
				c0.1,0.2,0.3,0.3,0.5,0.4c0.2,0.1,0.4,0.1,0.7,0.1c0.3,0,0.5,0,0.7-0.1c0.2-0.1,0.4-0.2,0.5-0.4c0.1-0.2,0.3-0.3,0.3-0.6
				c0.1-0.2,0.1-0.4,0.1-0.7c0-0.3,0-0.5-0.1-0.7c-0.1-0.2-0.2-0.4-0.3-0.6c-0.1-0.2-0.3-0.3-0.5-0.4c-0.2-0.1-0.4-0.1-0.7-0.1
				c-0.3,0-0.5,0-0.7,0.1c-0.2,0.1-0.4,0.2-0.5,0.4c-0.1,0.2-0.3,0.3-0.3,0.6C125.5,125.3,125.5,125.6,125.5,125.8z"/>
			<path class="st0" d="M130.9,123.1h1.6l2.3,3.8h0v-3.8h1.2v5.4h-1.6l-2.4-3.8h0v3.8h-1.2V123.1z"/>
			<path class="st0" d="M138.9,123.1h1l2.4,5.4h-1.3l-0.5-1.1h-2.1l-0.5,1.1h-1.3L138.9,123.1z M139.3,124.7l-0.7,1.7h1.3
				L139.3,124.7z"/>
			<path class="st0" d="M142.8,123.1h1.2v4.3h2.2v1.1h-3.4V123.1z"/>
		</g>
	</g>
	<g>
		<path class="st0" d="M110.2,78.6c0.2,0.5,0.6,1.1,2,1.1c1.4,0,1.8-0.6,2-1.1c0.8-2-0.3-5.9-2-9.7
			C110.5,72.7,109.4,76.6,110.2,78.6z"/>
		<path class="st0" d="M85.2,78.6c0.2,0.5,0.6,1.1,2,1.1c1.4,0,1.8-0.6,2-1.1c0.8-1.9-0.3-5.8-2-9.6C85.5,72.8,84.4,76.7,85.2,78.6z
			"/>
		<path class="st0" d="M95.6,92.6c0.7,1.6,2.1,2.4,4.2,2.4c2.1,0,3.5-0.8,4.2-2.3c1.6-3.9-0.8-11.6-4.2-18.7
			C96.3,81,94,88.7,95.6,92.6z"/>
		<path class="st0" d="M121.2,49.3c-1.8-3.9-4.6-6.9-7.6-9.1c-9.6-7.1-20.6-5.7-29.5,2.6c-6,5.6-7.2,12.5-8,22
			c-0.6,7.7-1,34,2.6,40.5c3.8,6.8,10.6,8.9,16.9,9.4c7.4,0.6,15.5-0.7,20.8-7.8c2.4-3.2,4.1-7.5,5.3-11.8
			C124.2,86.1,125,57.4,121.2,49.3z M117.6,60.4c-1.2,1.2-2.8,3.5-4.1,6.1c2.3,4.7,4.1,10,2.8,13c-0.5,1.1-1.6,2.4-4,2.4
			c-2.5,0-3.6-1.3-4.1-2.5c-1.3-3,0.5-8.4,2.8-13c-1.1-2-2.3-3.9-3.3-5.2c-2.1,2.3-4.5,6.1-6.7,10.2c4.1,7.9,7.1,17.1,5,22
			c-0.7,1.7-2.4,3.7-6.2,3.7c-3.9,0-5.5-2-6.3-3.8c-2.1-5,1-14.1,5-21.9c-2.2-4.1-4.6-7.8-6.7-10.2c-1.1,1.3-2.3,3.2-3.4,5.2
			c2.3,4.6,4,9.9,2.8,12.9c-0.5,1.1-1.6,2.5-4.1,2.5c-2.5,0-3.5-1.3-4-2.4c-1.2-2.9,0.5-8.3,2.8-12.9c-1.4-2.6-2.9-4.9-4.2-6.1
			c-0.4-0.4-0.4-1.1,0-1.5c0.4-0.4,1.1-0.4,1.5,0c1.1,1.1,2.5,3.1,3.9,5.4c1.3-2.3,2.7-4.3,3.8-5.4c0.4-0.4,1.2-0.4,1.6,0
			c2,2.1,4.7,5.9,7.1,10.3c2.5-4.5,5.2-8.3,7.2-10.3c0.2-0.2,0.5-0.3,0.8-0.3c0.3,0.1,0.6,0.1,0.8,0.3c1.1,1.1,2.4,3,3.7,5.3
			c1.3-2.3,2.7-4.2,3.8-5.3c0.4-0.4,1.1-0.4,1.5,0C118,59.3,118,60,117.6,60.4z"/>
	</g>
	<g>
		<path class="st0" d="M71.4,162.5l-0.1,0.2c-0.2,0.5-0.5,0.9-0.9,1.2c-0.4,0.3-0.9,0.4-1.4,0.4c-0.8,0-1.4-0.3-1.9-0.9
			c-0.4-0.6-0.7-1.3-0.7-2.1c0-0.9,0.2-1.7,0.7-2.3c0.5-0.7,1.1-1.1,1.9-1.1c0.1,0,0.4,0,0.9,0.1c0.2,0,0.3,0.1,0.4,0
			c0.2,0,0.3,0,0.4-0.1c0,0,0.1,0,0.3-0.1l0.4,1.9l-0.3,0.1l-0.1-0.2c-0.3-0.5-0.5-0.8-0.7-1c-0.3-0.3-0.6-0.4-1-0.4
			c-0.5,0-0.9,0.3-1.2,0.8c-0.3,0.5-0.4,1-0.4,1.6c0,0.8,0.2,1.5,0.5,2c0.4,0.7,0.9,1,1.5,1c0.3,0,0.6-0.1,0.9-0.3
			c0.3-0.2,0.5-0.4,0.6-0.7l0.1-0.2L71.4,162.5z"/>
		<path class="st0" d="M75.3,164.3H73V164l0.6-0.1v-5.5l-0.6-0.1V158h2.3v0.3l-0.6,0.1v5.5l0.6,0.1V164.3z"/>
		<path class="st0" d="M82.4,158.3c-0.1,0-0.2,0-0.3,0c-0.1,0-0.2,0.1-0.2,0.1c-0.1,0.1-0.2,0.2-0.2,0.3c0,0.1,0,0.2,0,0.4v3.2
			c0,0.6-0.2,1.1-0.5,1.4c-0.4,0.4-0.9,0.6-1.6,0.6c-0.7,0-1.3-0.2-1.6-0.5c-0.4-0.3-0.6-0.8-0.6-1.3v-4.2l-0.5-0.1V158h2.2v0.3
			l-0.6,0.1v4c0,0.5,0.1,0.9,0.3,1.1c0.2,0.3,0.6,0.5,1.1,0.5c0.5,0,0.8-0.1,1-0.4c0.2-0.3,0.3-0.6,0.3-1v-3.3c0-0.2,0-0.3,0-0.4
			c0-0.1-0.1-0.2-0.2-0.3c-0.1-0.1-0.1-0.1-0.2-0.1c-0.1,0-0.2-0.1-0.3-0.1V158h1.9V158.3z"/>
		<path class="st0" d="M89.4,161.1c0,1-0.3,1.7-0.9,2.3c-0.5,0.6-1.3,0.8-2.1,0.8h-2.5V164l0.5-0.1v-5.5l-0.5-0.1V158h1.9h0.7
			c0.7,0,1.3,0.2,1.8,0.7C89.1,159.3,89.4,160.1,89.4,161.1z M88.2,161.1c0-1-0.2-1.7-0.6-2.2c-0.3-0.4-0.8-0.6-1.4-0.6
			c-0.1,0-0.3,0-0.5,0c0,0-0.1,0-0.1,0v5.5h0.9c0.6,0,1.1-0.3,1.4-0.8C88.1,162.6,88.2,162,88.2,161.1z"/>
		<path class="st0" d="M96.9,164.3h-2.2V164l0.6-0.1l-0.5-1.6h-2.1l-0.3,0.9c0,0.1-0.1,0.2-0.1,0.3c0,0.1,0,0.2,0,0.2
			c0,0.1,0.1,0.1,0.1,0.2c0.1,0,0.2,0.1,0.3,0.1c0,0,0.1,0,0.1,0v0.3h-1.9V164c0.2,0,0.3-0.1,0.4-0.2c0.1-0.1,0.2-0.2,0.3-0.2
			c0.1-0.1,0.1-0.2,0.2-0.3l1.5-4.7l-0.2-0.5l1.2-0.1l2,6l0.4,0.1V164.3z M94.6,161.9l-0.9-2.8l-0.9,2.8H94.6z"/>
		<path class="st0" d="M103.8,161.1c0,1-0.3,1.7-0.9,2.3c-0.5,0.6-1.3,0.8-2.1,0.8h-2.5V164l0.5-0.1v-5.5l-0.5-0.1V158h1.9h0.7
			c0.7,0,1.3,0.2,1.8,0.7C103.5,159.3,103.8,160.1,103.8,161.1z M102.6,161.1c0-1-0.2-1.7-0.6-2.2c-0.3-0.4-0.8-0.6-1.4-0.6
			c-0.1,0-0.3,0-0.5,0c0,0-0.1,0-0.1,0v5.5h0.9c0.6,0,1.1-0.3,1.4-0.8C102.5,162.6,102.6,162,102.6,161.1z"/>
		<path class="st0" d="M114.1,158.3c-0.1,0-0.2,0-0.2,0c-0.1,0-0.1,0.1-0.2,0.1c-0.1,0.1-0.2,0.1-0.2,0.2c-0.1,0.1-0.1,0.2-0.2,0.4
			l-1.5,4.7l0.2,0.5l-1.2,0.1l-2-5.9l-0.4-0.1V158h2.2v0.3l-0.5,0.1l1.5,4.7l1.3-4c0-0.1,0-0.1,0-0.2c0-0.2-0.1-0.4-0.2-0.4
			c-0.1,0-0.1-0.1-0.2-0.1c-0.1,0-0.2,0-0.2,0V158h1.9V158.3z"/>
		<path class="st0" d="M117.9,164.3h-2.3V164l0.6-0.1v-5.5l-0.6-0.1V158h2.3v0.3l-0.6,0.1v5.5l0.6,0.1V164.3z"/>
		<path class="st0" d="M125.1,158.3c-0.1,0-0.2,0-0.2,0c-0.1,0-0.1,0.1-0.2,0.1c-0.1,0.1-0.2,0.1-0.2,0.2c-0.1,0.1-0.1,0.2-0.2,0.4
			l-1.5,4.7l0.2,0.5l-1.2,0.1l-2-5.9l-0.4-0.1V158h2.2v0.3l-0.5,0.1l1.5,4.7l1.3-4c0-0.1,0-0.1,0-0.2c0-0.2-0.1-0.4-0.2-0.4
			c-0.1,0-0.1-0.1-0.2-0.1c-0.1,0-0.2,0-0.2,0V158h1.9V158.3z"/>
		<path class="st0" d="M132.5,164.3h-2.2V164l0.6-0.1l-0.5-1.6h-2.1l-0.3,0.9c0,0.1-0.1,0.2-0.1,0.3c0,0.1,0,0.2,0,0.2
			c0,0.1,0.1,0.1,0.1,0.2c0.1,0,0.2,0.1,0.3,0.1c0,0,0.1,0,0.1,0v0.3h-1.9V164c0.2,0,0.3-0.1,0.4-0.2c0.1-0.1,0.2-0.2,0.3-0.2
			c0.1-0.1,0.1-0.2,0.1-0.3l1.5-4.7l-0.2-0.5l1.2-0.1l2,6l0.4,0.1V164.3z M130.2,161.9l-0.9-2.8l-0.9,2.8H130.2z"/>
	</g>
</g>
</svg>
